<svg width="400" height="400" xmlns="http://www.w3.org/2000/svg">
  <defs>
    <radialGradient id="spaceGradient">
      <stop offset="0%" stop-color="#000033"/>
      <stop offset="100%" stop-color="#000000"/>
    </radialGradient>
    <linearGradient id="textGradient" x1="0%" y1="0%" x2="100%" y2="100%">
      <stop offset="0%" stop-color="#0077ff"/>
      <stop offset="50%" stop-color="#0099ff"/>
      <stop offset="100%" stop-color="#00ccff"/>
    </linearGradient>
    <filter id="glow">
      <feGaussianBlur stdDeviation="3" result="coloredBlur"/>
      <feMerge>
        <feMergeNode in="coloredBlur"/>
        <feMergeNode in="SourceGraphic"/>
      </feMerge>
    </filter>
  </defs>
  
  <!-- Space background -->
  <rect width="400" height="400" fill="url(#spaceGradient)"/>
  
  <!-- Stars -->
  <circle cx="50" cy="50" r="1.5" fill="#ffffff"/>
  <circle cx="150" cy="30" r="1" fill="#ffffff"/>
  <circle cx="300" cy="70" r="1.2" fill="#ffffff"/>
  <circle cx="350" cy="120" r="1" fill="#ffffff"/>
  <circle cx="80" cy="150" r="1.3" fill="#ffffff"/>
  <circle cx="250" cy="180" r="1" fill="#ffffff"/>
  <circle cx="370" cy="250" r="1.5" fill="#ffffff"/>
  <circle cx="120" cy="280" r="1" fill="#ffffff"/>
  <circle cx="290" cy="320" r="1.2" fill="#ffffff"/>
  <circle cx="60" cy="350" r="1" fill="#ffffff"/>
  <circle cx="180" cy="370" r="1.3" fill="#ffffff"/>
  <circle cx="320" cy="360" r="1" fill="#ffffff"/>
  <circle cx="200" cy="60" r="1" fill="#ffffff" opacity="0.7"/>
  <circle cx="100" cy="200" r="1" fill="#ffffff" opacity="0.6"/>
  <circle cx="300" cy="300" r="1" fill="#ffffff" opacity="0.8"/>
  
  <!-- Shield icon -->
  <g transform="translate(50, 50)">
    <!-- Shield background -->
    <path d="M 0,-35 L 25,-25 L 25,10 Q 25,30 0,42 Q -25,30 -25,10 L -25,-25 Z" 
          fill="url(#textGradient)" 
          opacity="0.2"/>
    <!-- Shield border -->
    <path d="M 0,-35 L 25,-25 L 25,10 Q 25,30 0,42 Q -25,30 -25,10 L -25,-25 Z" 
          fill="none" 
          stroke="url(#textGradient)" 
          stroke-width="3"
          filter="url(#glow)"/>
    <!-- Checkmark -->
    <path d="M -12,0 L -5,10 L 15,-15" 
          fill="none" 
          stroke="url(#textGradient)" 
          stroke-width="4" 
          stroke-linecap="round"
          stroke-linejoin="round"
          filter="url(#glow)"/>
  </g>
</svg>
